<svg width="62" height="62" viewBox="0 0 62 62" fill="none" xmlns="http://www.w3.org/2000/svg">
<path fill-rule="evenodd" clip-rule="evenodd" d="M46.7031 1C55.375 1 61 6.625 61 15.2969V46.7031C61 55.375 55.375 61 46.7031 61H15.2969C6.625 61 1 55.375 1 46.7031V15.2969C1 6.625 6.625 1 15.2969 1H46.7031Z" stroke="#A4A4A4" stroke-width="0.5"/>
<path d="M45.4387 46.8922C41.6011 50.3744 36.3966 52.3306 30.9698 52.3306C25.5431 52.3306 20.3385 50.3744 16.501 46.8922C16.3025 46.712 16.1126 46.5319 15.922 46.3464C14.9084 45.3479 14.0171 44.2527 13.2635 43.0799C13.562 43.1682 13.859 43.2528 14.1594 43.3309C14.1666 43.3338 14.1742 43.336 14.1819 43.3375H14.1899C14.5068 43.4221 14.8204 43.5032 15.134 43.5777C15.2128 43.5951 15.2875 43.6155 15.3623 43.6377C15.6607 43.7056 15.9578 43.7734 16.2621 43.8311C16.3454 43.8536 16.43 43.8716 16.5155 43.8851C16.7438 43.9361 16.9787 43.98 17.2103 44.0208C17.371 44.0514 17.5411 44.0808 17.6959 44.1091C17.9348 44.1493 18.1697 44.1871 18.4085 44.2208C18.566 44.2478 18.7148 44.2682 18.8756 44.285C19.0774 44.3192 19.2825 44.345 19.4883 44.3667C19.667 44.3937 19.8463 44.4141 20.0295 44.4309C20.2796 44.4615 20.5297 44.485 20.7871 44.5018C20.8917 44.5156 21.0002 44.5258 21.112 44.5324C21.3846 44.5564 21.6572 44.5732 21.9337 44.5864C22.0793 44.5966 22.2249 44.6068 22.3777 44.6104C22.5306 44.614 22.6953 44.6273 22.8561 44.6309C23.1545 44.6441 23.4569 44.6477 23.7599 44.6513C23.7971 44.6543 23.8345 44.6543 23.8717 44.6513C24.1628 44.6579 24.4579 44.6513 24.749 44.6477C24.9475 44.6513 25.1414 44.6441 25.3313 44.6339C25.5483 44.6339 25.7607 44.6243 25.9738 44.614C26.0968 44.6104 26.2166 44.6038 26.3324 44.5936C26.6162 44.5798 26.9001 44.5594 27.1832 44.5396C27.3288 44.5294 27.4783 44.5156 27.6239 44.4988C27.833 44.485 28.0387 44.4681 28.2405 44.4387C28.439 44.4219 28.6375 44.3979 28.8301 44.3709C29.0054 44.3541 29.1814 44.33 29.3495 44.3066C29.5731 44.2796 29.7934 44.2466 30.0111 44.2117C30.2288 44.1769 30.459 44.1439 30.6833 44.1031C30.7865 44.0903 30.8888 44.0722 30.9897 44.049C31.3033 43.9944 31.6169 43.9337 31.9266 43.8689C32.3151 43.7944 32.6998 43.7098 33.0805 43.6149C33.2485 43.5771 33.4113 43.5368 33.5767 43.4948C34.9151 43.1591 36.2296 42.7495 37.5128 42.2681C37.6954 42.2038 37.8748 42.136 38.0541 42.0615C38.2526 41.9901 38.4458 41.909 38.6403 41.8273C38.8011 41.7631 38.9651 41.6952 39.1259 41.6244C39.3046 41.5499 39.4839 41.4683 39.6599 41.3908C40.3017 41.1056 40.9329 40.8042 41.5528 40.4787C41.7096 40.3977 41.8625 40.3196 42.016 40.2349C42.1172 40.1839 42.2105 40.1335 42.3078 40.0788L42.7782 39.8146C43.4167 39.4543 44.04 39.0695 44.6559 38.666L45.0708 38.3915L45.2574 38.263C45.4215 38.1545 45.5821 38.0427 45.7391 37.9274C45.9779 37.7581 46.2168 37.5887 46.4483 37.4122C46.5145 37.3684 46.5714 37.3209 46.6316 37.2735C46.7917 37.1534 46.9525 37.0297 47.1093 36.9072C47.2661 36.7847 47.4269 36.6532 47.5837 36.5247C47.6955 36.4365 47.8041 36.3446 47.9145 36.2503C48.2732 35.9521 48.624 35.6471 48.9672 35.3352C49.1432 35.1755 49.3146 35.02 49.4793 34.8549C49.5687 34.7738 49.6547 34.6958 49.7407 34.6111C50.0391 34.3193 50.3302 34.028 50.6141 33.7302L50.6253 33.72C50.6961 33.6486 50.7676 33.5777 50.8344 33.5027C51.0249 33.3027 51.2076 33.1027 51.3948 32.9022C51.4013 32.8965 51.4063 32.8895 51.4094 32.8818C51.4545 33.7542 51.4324 34.6284 51.3432 35.498V35.5184C51.3432 35.5219 51.3418 35.5253 51.3392 35.528C50.8933 39.8247 48.806 43.8447 45.4387 46.8922Z" fill="#CF941A"/>
<path d="M48.971 35.337C44.5064 39.3916 38.9171 42.2755 32.7945 43.6834C26.6719 45.0913 20.2437 44.971 14.1903 43.3351C14.1797 43.3357 14.1691 43.3334 14.1599 43.3285H14.1526C13.8542 43.2468 13.5571 43.1622 13.264 43.0775C12.3667 41.6801 11.6785 40.1803 11.2176 38.6179C10.8832 37.4889 10.6659 36.334 10.5685 35.1683C10.8371 35.1617 11.1024 35.1515 11.3711 35.1377H11.3783C11.3844 35.1359 11.3908 35.1359 11.3969 35.1377H11.4008C20.0275 34.7254 28.179 31.4242 34.2785 25.8727C36.9104 23.4852 39.1094 20.7347 40.7937 17.7233V17.7197C40.801 17.7131 40.8049 17.7029 40.8122 17.6963L40.8049 17.6957C40.809 17.6883 40.8141 17.6814 40.8202 17.6753C40.973 17.4009 41.1225 17.1229 41.2648 16.8449L45.4391 20.6337C49.0461 23.898 51.1771 28.2687 51.4131 32.8866C51.159 33.1712 50.8977 33.4492 50.629 33.7272C50.1024 34.276 49.5499 34.8116 48.971 35.337Z" fill="#35382F"/>
<path d="M34.2782 25.8727C34.0281 26.0997 33.7741 26.323 33.52 26.5404C33.3559 26.6827 33.1892 26.8178 33.0238 26.9571C32.3515 27.5123 31.657 28.0409 30.9402 28.5429C30.757 28.675 30.5743 28.8005 30.3871 28.9224C30.1635 29.0785 29.9359 29.2226 29.7043 29.3733C29.4873 29.5156 29.2709 29.6507 29.0473 29.7864C28.9943 29.8201 28.9388 29.8507 28.8865 29.8849C28.7032 29.9966 28.5127 30.1083 28.3261 30.217C27.355 30.7798 26.3531 31.2977 25.3242 31.7685C25.1224 31.8634 24.9213 31.9517 24.7228 32.0363C24.7004 32.0488 24.6766 32.0591 24.652 32.067C24.4469 32.1582 24.249 32.2429 24.0433 32.3276C23.9837 32.3552 23.9169 32.3822 23.8494 32.4092C23.6291 32.5005 23.4087 32.5852 23.1877 32.6704C22.9376 32.7683 22.6836 32.8632 22.4295 32.9514C22.1754 33.0397 21.9035 33.1376 21.6355 33.2294C21.3894 33.3105 21.1393 33.3886 20.8965 33.4696C20.6318 33.5507 20.3771 33.6287 20.1197 33.6996C19.8623 33.7705 19.6003 33.8455 19.339 33.9134C19.0776 33.9812 18.8163 34.0491 18.5589 34.1133C18.3015 34.1776 18.0296 34.2388 17.7649 34.2935C17.5002 34.3481 17.2389 34.4051 16.9709 34.4562C16.4416 34.5607 15.9123 34.6555 15.383 34.7372C14.8536 34.8188 14.3151 34.8861 13.7811 34.9503C12.9871 35.035 12.1932 35.0999 11.3913 35.1401H11.3873C11.38 35.1401 11.38 35.1401 11.376 35.1401C11.3756 35.1406 11.3751 35.141 11.3744 35.1413C11.3738 35.1415 11.3731 35.1417 11.3724 35.1417C11.3717 35.1417 11.371 35.1415 11.3704 35.1413C11.3698 35.141 11.3692 35.1406 11.3688 35.1401C11.1001 35.1539 10.8275 35.1641 10.5589 35.1707C10.4758 34.178 10.4806 33.1809 10.5735 32.1889C10.577 32.179 10.5783 32.1686 10.5774 32.1582C10.9853 27.8017 13.0807 23.7171 16.4919 20.6295L30.97 7.5L41.2639 16.8419C41.1216 17.1199 40.9761 17.3943 40.8192 17.6657V17.6723C40.8132 17.6784 40.808 17.6853 40.804 17.6927L40.808 17.6963L40.7968 17.7059C40.7945 17.7076 40.7926 17.7097 40.7914 17.7121C40.7901 17.7144 40.7895 17.7171 40.7895 17.7197V17.7233C40.7788 17.7392 40.7701 17.7561 40.7637 17.7738L40.6631 17.9467C40.3967 18.4199 40.1117 18.8886 39.8083 19.353C39.6098 19.6682 39.3974 19.9834 39.181 20.2951C38.7893 20.8607 38.3725 21.4221 37.9305 21.9793C37.822 22.1114 37.7214 22.2435 37.6089 22.372C37.3443 22.6939 37.075 23.0127 36.7951 23.328C36.6946 23.4481 36.586 23.5681 36.4775 23.6768C36.2837 23.8936 36.0806 24.1074 35.8768 24.3175C35.366 24.8495 34.8331 25.3679 34.2782 25.8727Z" fill="#CF941A"/>
<g style="mix-blend-mode:multiply" opacity="0.25">
<path d="M11.3966 35.1371H11.4006C11.3894 35.1406 11.3854 35.1371 11.3781 35.1371C11.3841 35.1354 11.3906 35.1354 11.3966 35.1371Z" fill="black"/>
</g>
<g style="mix-blend-mode:multiply" opacity="0.25">
<path d="M40.8087 17.6956C40.8027 17.7042 40.7976 17.7133 40.7935 17.7227V17.7191C40.7935 17.7089 40.8047 17.7023 40.808 17.692C40.812 17.6847 40.8171 17.6778 40.8232 17.6716C40.8232 17.6716 40.816 17.6824 40.8087 17.6956Z" fill="black"/>
</g>
<g style="mix-blend-mode:multiply" opacity="0.25">
<path d="M34.2705 26.4623C33.4804 27.1913 32.6465 27.8803 31.7728 28.526C30.8742 29.1939 29.9383 29.8191 28.9688 30.3994C28.4758 30.6913 27.9829 30.9759 27.4754 31.2335L26.7212 31.6262C26.4631 31.7463 26.2091 31.8664 25.9517 31.9864C25.6943 32.1065 25.4402 32.2266 25.1861 32.3425C24.9288 32.4476 24.6674 32.5563 24.4133 32.6578C23.8979 32.8745 23.3825 33.0577 22.8711 33.2372C22.3636 33.4269 21.8554 33.5831 21.3552 33.732C20.855 33.8809 20.3581 34.013 19.8765 34.1319C19.3987 34.2604 18.9283 34.3688 18.4652 34.4573C18.006 34.5486 17.5614 34.6374 17.1319 34.7041C16.7025 34.7707 16.2923 34.8434 15.8999 34.8872C15.5076 34.9311 15.1311 34.9689 14.7798 35.0025C14.0745 35.0668 13.4565 35.0908 12.9543 35.128C12.069 35.1448 11.5199 35.1412 11.4008 35.1412C20.0279 34.728 28.1796 31.4254 34.2785 25.8726C36.9104 23.4852 39.1093 20.7347 40.7937 17.7233C40.7679 17.7833 40.7196 17.8788 40.6521 18.0235C40.5476 18.2475 40.3874 18.5795 40.1631 18.9896C39.5452 20.1329 38.8416 21.2363 38.0571 22.2921C37.535 23.0016 36.9741 23.687 36.3765 24.3457C35.7202 25.0875 35.017 25.7943 34.2705 26.4623Z" fill="black"/>
</g>
<g style="mix-blend-mode:screen" opacity="0.4">
<path d="M34.2783 25.8727C28.1792 31.4251 20.0276 34.7273 11.4006 35.1401C11.3894 35.1438 11.3854 35.1401 11.3781 35.1401C11.3841 35.1385 11.3906 35.1385 11.3966 35.1401C11.5197 35.1233 12.0656 35.0483 12.9429 34.9438C13.4358 34.8621 14.0366 34.7841 14.7201 34.652C15.4036 34.5199 16.1757 34.3674 17.0014 34.1674C17.4196 34.0791 17.845 33.9645 18.2857 33.842C18.7264 33.7195 19.1855 33.6018 19.6487 33.4523C20.1151 33.3136 20.5895 33.1677 21.0679 32.9917C21.5463 32.8158 22.0385 32.6597 22.5202 32.4597C23.0131 32.27 23.5094 32.0766 23.999 31.8497C24.4919 31.6395 24.9915 31.4125 25.4771 31.1717C25.7279 31.0517 25.974 30.9316 26.2241 30.8115L26.9519 30.4218C27.4409 30.1678 27.9153 29.8868 28.3857 29.6022C29.3344 29.0458 30.2515 28.4465 31.1335 27.8062C32.0036 27.1721 32.8472 26.5284 33.6206 25.8607C35.0432 24.6536 36.3637 23.351 37.5707 21.9638C38.4337 20.9814 39.2379 19.9576 39.9797 18.8967C40.4204 18.2734 40.7002 17.8567 40.7902 17.721C40.7902 17.7108 40.8015 17.7042 40.8048 17.694C40.8087 17.6866 40.8139 17.6797 40.82 17.6735C40.82 17.6735 40.816 17.6838 40.8087 17.6976C40.8028 17.7062 40.7977 17.7152 40.7935 17.7246C39.109 20.7356 36.9101 23.4856 34.2783 25.8727Z" fill="#B8B454"/>
</g>
<g style="mix-blend-mode:multiply" opacity="0.25">
<path d="M45.439 46.8922C41.6015 50.3744 36.397 52.3306 30.9702 52.3306C25.5434 52.3306 20.3389 50.3744 16.5013 46.8922C16.5013 46.8922 16.6396 46.9972 16.8983 47.1924C17.1557 47.399 17.5553 47.6668 18.0555 48.0126C18.567 48.3477 19.2021 48.7332 19.9485 49.1409C20.7927 49.5784 21.6643 49.9709 22.5587 50.3166C23.617 50.7127 24.7082 51.0324 25.8219 51.2725C27.0591 51.5303 28.3185 51.691 29.586 51.7528C30.938 51.8141 32.2933 51.7574 33.6333 51.5835C35.0149 51.4114 36.3721 51.1047 37.6812 50.6684C38.9962 50.243 40.2589 49.6944 41.4486 49.0316C42.6013 48.3888 43.6836 47.6475 44.6808 46.8177C45.6151 46.0354 46.4724 45.1805 47.2426 44.2628C47.9317 43.4348 48.5459 42.5577 49.0794 41.64C49.5325 40.8578 49.9293 40.0497 50.267 39.2208C50.5582 38.475 50.7818 37.8109 50.9353 37.2585C51.0888 36.7061 51.1966 36.2623 51.2529 35.9609C51.2972 35.7303 51.327 35.588 51.3422 35.5268C50.8959 39.8243 48.8076 43.8448 45.439 46.8922Z" fill="black"/>
</g>
<g style="mix-blend-mode:screen" opacity="0.4">
<path d="M32.9787 9.91262L30.9885 8.19412L28.33 10.6884C27.3256 11.6335 26.2948 12.5624 25.2758 13.5009C24.2569 14.4394 23.2333 15.3677 22.2025 16.2894C21.1717 17.2111 20.1514 18.1466 19.1034 19.0617L17.5392 20.4338L16.7737 21.1153C16.5196 21.3555 16.251 21.5824 16.0227 21.8166C15.5407 22.2823 15.0877 22.7721 14.6657 23.2835C14.2402 23.7987 13.8479 24.3373 13.4747 24.8867C13.1047 25.4366 12.7681 26.0045 12.4664 26.5878C12.1567 27.1739 11.8874 27.7767 11.6413 28.3892C11.4137 29.0029 11.1854 29.6225 11.0174 30.2632C10.842 30.8835 10.7038 31.5242 10.5847 32.1606C10.9925 27.8041 13.0879 23.7195 16.4991 20.6319L30.97 7.5L40.3044 15.9712C38.6358 14.6598 37.0147 13.3112 35.3944 11.956L32.9787 9.91262Z" fill="white"/>
</g>
<path d="M28.9243 25.543C28.937 26.0762 29.0894 26.5586 29.3813 26.9902C29.686 27.4092 30.0859 27.8091 30.5811 28.1899C30.9873 28.5073 31.5522 28.8818 32.2759 29.3135C32.9995 29.7451 33.6279 30.1196 34.1611 30.437C34.8086 30.8306 35.4434 31.2686 36.0654 31.751C36.6875 32.2207 37.2461 32.7539 37.7412 33.3506C38.2363 33.9473 38.6362 34.6201 38.9409 35.3691C39.2456 36.1182 39.4106 36.9688 39.436 37.9209V38.0732C39.436 39.0889 39.3091 39.9966 39.0552 40.7964C38.5474 42.3071 37.7222 43.4307 36.5796 44.167C35.9956 44.5479 35.4116 44.8398 34.8276 45.043C34.2056 45.2588 33.5771 45.4111 32.9424 45.5C32.3203 45.5889 31.73 45.6396 31.1714 45.6523H30.981C29.9272 45.6523 28.9814 45.5444 28.1436 45.3286C27.3311 45.1128 26.6328 44.8271 26.0488 44.4717C25.4648 44.1035 24.9824 43.6846 24.6016 43.2148C24.208 42.7451 23.897 42.2563 23.6685 41.7485C23.4399 41.2534 23.2749 40.7583 23.1733 40.2632C23.0718 39.7681 23.021 39.3047 23.021 38.873C23.021 38.0098 23.2812 37.3623 23.8018 36.9307C24.335 36.499 24.9761 36.2832 25.7251 36.2832C26.4487 36.2832 27.1152 36.5054 27.7246 36.9497C28.3467 37.3813 28.6704 38.0098 28.6958 38.835C28.7212 39.7871 28.937 40.4409 29.3433 40.7964C29.7495 41.1392 30.3335 41.3105 31.0952 41.3105C31.9204 41.2852 32.5615 41.0757 33.0186 40.6821C33.4883 40.2886 33.7231 39.584 33.7231 38.5684C33.7231 37.6924 33.4629 36.918 32.9424 36.2451C32.4346 35.5723 31.7871 34.9565 31 34.3979C30.2129 33.8267 29.394 33.2744 28.5435 32.7412C27.6548 32.1699 26.8169 31.5732 26.0298 30.9512C25.2427 30.3164 24.6016 29.5991 24.1064 28.7993C23.6113 27.9995 23.3511 27.0664 23.3257 26V25.6953C23.3384 24.3369 23.5161 23.207 23.8589 22.3057C24.2144 21.4043 24.7349 20.687 25.4204 20.1538C26.0933 19.6206 26.9248 19.2461 27.915 19.0303C28.9053 18.8018 30.0415 18.6875 31.3237 18.6875H31.8188C32.9614 18.6875 33.9517 18.8145 34.7896 19.0684C35.6021 19.3223 36.2749 19.646 36.8081 20.0396C37.354 20.4331 37.7856 20.8774 38.103 21.3726C38.4077 21.855 38.6362 22.3438 38.7886 22.8389C38.9409 23.3213 39.0361 23.772 39.0742 24.1909C39.1123 24.6099 39.1313 24.9463 39.1313 25.2002C39.1313 25.9492 38.8584 26.5586 38.3125 27.0283C37.7793 27.4854 37.1255 27.7139 36.3511 27.7139C35.7671 27.7139 35.1958 27.498 34.6372 27.0664C34.0786 26.6348 33.7993 26.165 33.7993 25.6572C33.7993 24.6162 33.6089 23.8926 33.228 23.4863C32.8599 23.0801 32.314 22.877 31.5903 22.877C30.7524 22.877 30.0986 23.0293 29.6289 23.334C29.1592 23.6387 28.9243 24.375 28.9243 25.543Z" fill="white"/>
</svg>
